<svg width="17" height="17" viewBox="0 0 17 17" fill="none" xmlns="http://www.w3.org/2000/svg">
    <g clip-path="url(#clip0_7996_56003)">
        <g clip-path="url(#clip1_7996_56003)">
            <path fill-rule="evenodd" clip-rule="evenodd"
                d="M8.47468 1.35256C8.59695 1.10481 8.95023 1.10481 9.0725 1.35256L11.1658 5.59408L15.8466 6.27424C16.12 6.31397 16.2292 6.64996 16.0314 6.84281L12.6443 10.1444L13.4439 14.8063C13.4906 15.0786 13.2048 15.2862 12.9602 15.1576L8.77359 12.9566L4.58695 15.1576C4.34241 15.2862 4.0566 15.0786 4.1033 14.8063L4.90288 10.1444L1.51582 6.84281C1.31798 6.64996 1.42715 6.31397 1.70056 6.27424L6.38136 5.59408L8.47468 1.35256ZM8.77359 3.75963L7.26678 6.81276L3.89745 7.30235L6.33552 9.67888L5.75997 13.0346L8.77359 11.4502L11.7872 13.0346L11.2117 9.67888L13.6497 7.30235L10.2804 6.81276L8.77359 3.75963Z"
                fill="#0A84FF" />
        </g>
    </g>
    <defs>
        <clipPath id="clip0_7996_56003">
            <rect width="16" height="16" fill="white" transform="translate(0.773438 0.5)" />
        </clipPath>
        <clipPath id="clip1_7996_56003">
            <rect width="16" height="16" fill="white" transform="translate(0.773438 0.5)" />
        </clipPath>
    </defs>
</svg>
