<svg width="24" height="24" viewBox="0 0 24 24" fill="none" xmlns="http://www.w3.org/2000/svg">
    <path fill-rule="evenodd" clip-rule="evenodd"
        d="M0 2.53311C0 1.92559 0.49249 1.43311 1.1 1.43311H18.87C19.4765 1.43311 19.9685 1.92403 19.97 2.53054L19.9998 15.3305C20.0012 15.9286 19.5195 16.4331 18.9006 16.4331H5.82834L1.87523 20.3793C1.14683 21.106 0 20.5285 0 19.599V2.53311ZM24 9.33319C24 9.05705 23.7761 8.83319 23.5 8.83319H22.5C22.2239 8.83319 22 9.05705 22 9.33319V19.419L20.7071 18.1261C20.5196 17.9385 20.2652 17.8332 20 17.8332H10.5C10.2239 17.8332 10 18.057 10 18.3332V19.3332C10 19.6093 10.2239 19.8332 10.5 19.8332H19.5858L22.2929 22.5403C22.5789 22.8263 23.009 22.9119 23.3827 22.7571C23.7564 22.6023 24 22.2377 24 21.8332V9.33319ZM14.9911 7.59984C15.0009 7.43445 14.8656 7.2998 14.6999 7.2998H13.4999C13.2238 7.2998 13.0043 7.52534 12.9588 7.79771C12.7216 9.2176 11.4872 10.2998 9.99995 10.2998C8.51272 10.2998 7.27825 9.2176 7.04108 7.79771C6.99558 7.52535 6.77609 7.29981 6.49995 7.29981L5.29995 7.29981C5.13426 7.29981 4.99901 7.43445 5.0088 7.59985C5.16397 10.2216 7.33926 12.2998 9.99995 12.2998C12.6606 12.2998 14.8359 10.2216 14.9911 7.59984Z"
        fill="#F2B602" />
</svg>
