<svg width="24" height="25" viewBox="0 0 24 25" fill="none" xmlns="http://www.w3.org/2000/svg">
    <path
        d="M5.5 9.73389C5.5 9.45774 5.72386 9.23389 6 9.23389H14C14.2761 9.23389 14.5 9.45774 14.5 9.73389V10.7339C14.5 11.01 14.2761 11.2339 14 11.2339H6C5.72386 11.2339 5.5 11.01 5.5 10.7339V9.73389Z"
        fill="#949496" />
    <path fill-rule="evenodd" clip-rule="evenodd"
        d="M1.87523 21.3793L5.82834 17.4331H18.9006C19.5195 17.4331 20.0012 16.9286 19.9998 16.3305L19.97 3.53054C19.9685 2.92403 19.4765 2.43311 18.87 2.43311H1.1C0.49249 2.43311 0 2.92559 0 3.53311V20.599C0 21.5285 1.14683 22.106 1.87523 21.3793ZM4.41536 16.0177L2 18.4288V4.43311H17.9721L17.9977 15.4331H5.82834C5.29851 15.4331 4.79033 15.6433 4.41536 16.0177Z"
        fill="#949496" />
    <path
        d="M24 10.333C24 10.0569 23.7761 9.83301 23.5 9.83301H22.5C22.2239 9.83301 22 10.0569 22 10.333V20.4188L20.7071 19.1259C20.5196 18.9384 20.2652 18.833 20 18.833H10.5C10.2239 18.833 10 19.0569 10 19.333V20.333C10 20.6091 10.2239 20.833 10.5 20.833H19.5858L22.2929 23.5401C22.5789 23.8261 23.009 23.9117 23.3827 23.7569C23.7564 23.6021 24 23.2375 24 22.833V10.333Z"
        fill="#949496" />
</svg>
