<svg width="16" height="16" viewBox="0 0 16 16" fill="none" xmlns="http://www.w3.org/2000/svg">
    <path
        d="M8.66667 7.66683C8.66667 7.85092 8.51743 8.00016 8.33333 8.00016H5C4.8159 8.00016 4.66667 7.85092 4.66667 7.66683V7.00016C4.66667 6.81607 4.8159 6.66683 5 6.66683H8.33333C8.51743 6.66683 8.66667 6.81607 8.66667 7.00016V7.66683Z"
        fill="#949496" />
    <path
        d="M4.66667 10.3335C4.66667 10.5176 4.8159 10.6668 5 10.6668H8.33333C8.51743 10.6668 8.66667 10.5176 8.66667 10.3335V9.66683C8.66667 9.48273 8.51743 9.3335 8.33333 9.3335H5C4.8159 9.3335 4.66667 9.48273 4.66667 9.66683V10.3335Z"
        fill="#949496" />
    <path fill-rule="evenodd" clip-rule="evenodd"
        d="M13.3333 1.66683C13.3333 1.48273 13.1841 1.3335 13 1.3335H4.33333C4.14924 1.3335 4 1.48273 4 1.66683V3.3335H2.33333C2.14924 3.3335 2 3.48273 2 3.66683V13.6668C2 13.8509 2.14924 14.0002 2.33333 14.0002H11C11.1841 14.0002 11.3333 13.8509 11.3333 13.6668V12.0002H13C13.1841 12.0002 13.3333 11.8509 13.3333 11.6668V1.66683ZM11.3333 10.6668H12V2.66683H5.33333V3.3335H11.3333V10.6668ZM3.33333 4.66683H10V12.6668H3.33333V4.66683Z"
        fill="#949496" />
</svg>
