<svg width="15" height="25" viewBox="0 0 15 25" fill="none" xmlns="http://www.w3.org/2000/svg">
    <path fill-rule="evenodd" clip-rule="evenodd"
        d="M4.07666 3.96222C7.89533 5.01299 8.36646 5.17369 10.4866 5.89068C11.3792 6.19973 12.5695 6.59531 14.516 7.23813C14.6648 7.28758 14.7516 7.44828 14.702 7.60899C14.6648 7.7326 14.5408 7.81914 14.4168 7.80678L3.90309 8.17763C3.74191 8.17763 3.60553 8.05401 3.60553 7.89331V7.86859L3.70472 4.22182C3.70472 4.06112 3.8411 3.9375 4.00227 3.9375C4.02707 3.9375 4.05187 3.9375 4.07666 3.9375V3.96222ZM11.1685 6.7931C9.91625 6.36043 8.85 6.1132 6.7175 5.51982L6.6679 7.33702L12.6935 7.29994C12.0488 7.08979 11.5652 6.91672 11.1685 6.7931Z"
        fill="#515151" />
    <path fill-rule="evenodd" clip-rule="evenodd"
        d="M4.32458 9.10742C7.01501 9.2434 9.15991 11.4685 9.15991 14.1882C9.15991 16.9078 7.01501 19.1206 4.32458 19.2689V9.11978V9.10742Z"
        fill="white" />
    <path fill-rule="evenodd" clip-rule="evenodd"
        d="M4.33691 9.88672C6.18426 10.3936 7.54807 12.0748 7.54807 14.0774C7.54807 16.08 6.18426 17.7736 4.33691 18.2681V9.88672Z"
        fill="#B0B0B0" />
    <path fill-rule="evenodd" clip-rule="evenodd"
        d="M4.33645 8.80988C5.76225 8.88405 7.03927 9.51451 7.96914 10.4787C8.88661 11.443 9.44453 12.741 9.44453 14.1749C9.44453 15.6089 8.87421 16.9069 7.96914 17.8712C7.05167 18.8354 5.77465 19.4658 4.33645 19.54H4.02649V8.78516H4.33645V8.79752V8.80988ZM7.47321 11.0474C6.7789 10.318 5.83664 9.82356 4.79518 9.7123V18.4398C5.84903 18.3162 6.7913 17.8217 7.47321 17.1047C8.2171 16.3136 8.67584 15.2504 8.67584 14.0884C8.67584 12.9264 8.2171 11.8509 7.47321 11.0721V11.0474Z"
        fill="#515151" />
    <path fill-rule="evenodd" clip-rule="evenodd"
        d="M8.51497 24.5329H2.52661V7.79492H3.27051V23.7789H8.51497V24.5329Z" fill="#515151" />
    <path d="M4.78278 8.48828H4.02649V23.1124H4.78278V8.48828Z" fill="#515151" />
    <path fill-rule="evenodd" clip-rule="evenodd"
        d="M1.6837 4.85451C1.6837 4.85451 -0.238034 3.60596 0.431472 0.292969C0.431472 0.292969 1.01419 2.44394 4.25014 2.85188L3.50624 3.64304C3.50624 3.64304 2.81194 4.47129 1.6837 4.86687"
        fill="#B0B0B0" />
    <path fill-rule="evenodd" clip-rule="evenodd"
        d="M1.52252 5.08853C1.52252 5.08853 -0.560386 3.72872 0.146315 0.230299C0.171111 0.0695945 0.332289 -0.0293006 0.493466 0.00778515C0.60505 0.032509 0.691839 0.119042 0.716635 0.217937C0.716635 0.217937 1.24976 2.18348 4.28734 2.5667C4.44851 2.59142 4.5601 2.7274 4.5353 2.88811C4.5353 2.94992 4.49811 3.01173 4.46091 3.04881L3.71702 3.82761C3.64263 3.91415 2.91113 4.73003 1.77049 5.12561C1.6837 5.15034 1.58451 5.13798 1.51012 5.08853H1.52252ZM0.766228 1.62719C0.654644 3.09826 1.34895 3.81525 1.59691 4.0254C2.26642 3.7658 2.68796 3.28369 2.71276 3.2466L2.97312 2.96228C1.74569 2.71504 1.08858 2.10931 0.741431 1.63956L0.766228 1.62719Z"
        fill="#515151" />
    <path fill-rule="evenodd" clip-rule="evenodd"
        d="M4.36175 9.09363C6.09751 9.09363 7.52331 7.68438 7.52331 5.94135C7.52331 4.19832 6.09751 2.78906 4.36175 2.78906C2.626 2.78906 1.2002 4.21068 1.2002 5.94135C1.2002 7.67201 2.626 9.09363 4.36175 9.09363Z"
        fill="white" />
    <path fill-rule="evenodd" clip-rule="evenodd"
        d="M4.36151 2.50586C5.31618 2.50586 6.17166 2.88908 6.80397 3.50717C7.42388 4.12527 7.80823 4.9906 7.80823 5.94247C7.80823 6.89433 7.42388 7.74731 6.80397 8.37776C6.18406 8.99586 5.31618 9.37908 4.36151 9.37908C3.40685 9.37908 2.55137 8.99586 1.91905 8.37776C1.28674 7.75967 0.914795 6.89433 0.914795 5.94247C0.914795 4.9906 1.29914 4.13763 1.91905 3.50717C2.53897 2.88908 3.40685 2.50586 4.36151 2.50586ZM6.28324 4.03874C5.78731 3.54426 5.10541 3.24757 4.36151 3.24757C3.61762 3.24757 2.93571 3.55662 2.43978 4.03874C1.94385 4.53321 1.64629 5.21312 1.64629 5.95483C1.64629 6.69654 1.95625 7.37645 2.43978 7.87093C2.93571 8.3654 3.61762 8.66209 4.36151 8.66209C5.10541 8.66209 5.78731 8.35304 6.28324 7.87093C6.77917 7.37645 7.07673 6.69654 7.07673 5.95483C7.07673 5.21312 6.76678 4.53321 6.28324 4.03874Z"
        fill="#515151" />
    <path fill-rule="evenodd" clip-rule="evenodd"
        d="M4.83311 7.68647C5.83737 7.68647 6.66806 6.85822 6.66806 5.85691C6.66806 4.85559 5.83737 4.02734 4.83311 4.02734C3.82885 4.02734 2.99817 4.85559 2.99817 5.85691C2.99817 6.85822 3.82885 7.68647 4.83311 7.68647Z"
        fill="white" />
    <path fill-rule="evenodd" clip-rule="evenodd"
        d="M4.62194 3.82617C5.17986 3.82617 5.68819 4.04869 6.06014 4.41954C6.43209 4.7904 6.65525 5.29724 6.65525 5.85352C6.65525 6.40981 6.43209 6.91665 6.06014 7.2875C5.68819 7.65836 5.17986 7.88088 4.62194 7.88088C4.06402 7.88088 3.55569 7.65836 3.18374 7.2875C2.81179 6.91665 2.58862 6.40981 2.58862 5.85352C2.58862 5.29724 2.81179 4.7904 3.18374 4.41954C3.55569 4.04869 4.06402 3.82617 4.62194 3.82617ZM5.6138 4.85221C5.35344 4.59261 5.00629 4.44427 4.62194 4.44427C4.23759 4.44427 3.87804 4.60497 3.63008 4.85221C3.36971 5.11181 3.22094 5.45794 3.22094 5.84116C3.22094 6.22438 3.38211 6.58288 3.63008 6.83011C3.89044 7.08971 4.23759 7.23806 4.62194 7.23806C5.00629 7.23806 5.36584 7.07735 5.6138 6.83011C5.87417 6.57051 6.02294 6.22438 6.02294 5.84116C6.02294 5.45794 5.86177 5.09945 5.6138 4.85221Z"
        fill="#515151" />
    <path fill-rule="evenodd" clip-rule="evenodd"
        d="M5.26699 5.84075C5.44056 5.84075 5.57694 5.70477 5.57694 5.5317C5.57694 5.35864 5.44056 5.22266 5.26699 5.22266C5.09341 5.22266 4.95703 5.35864 4.95703 5.5317C4.95703 5.70477 5.09341 5.84075 5.26699 5.84075Z"
        fill="#515151" />
</svg>
