<svg width="48" height="48" viewBox="0 0 48 48" fill="none" xmlns="http://www.w3.org/2000/svg">
    <rect width="48" height="48" fill="white" />
    <path fill-rule="evenodd" clip-rule="evenodd"
        d="M20.5949 11.5439C26.3229 13.1201 27.0296 13.3611 30.2098 14.4366C31.5488 14.9002 33.3342 15.4935 36.254 16.4578C36.4771 16.5319 36.6073 16.773 36.5329 17.0141C36.4771 17.1995 36.2912 17.3293 36.1052 17.3107L20.3346 17.867C20.0928 17.867 19.8882 17.6816 19.8882 17.4405V17.4035L20.037 11.9333C20.037 11.6923 20.2416 11.5068 20.4834 11.5068C20.5206 11.5068 20.5578 11.5068 20.5949 11.5068V11.5439ZM31.2327 15.7902C29.3543 15.1412 27.7549 14.7704 24.5562 13.8803L24.4818 16.6061L33.5201 16.5505C32.5531 16.2353 31.8278 15.9757 31.2327 15.7902Z"
        fill="#231815" />
    <path fill-rule="evenodd" clip-rule="evenodd"
        d="M20.9669 19.2622C25.0026 19.4662 28.2199 22.8039 28.2199 26.8833C28.2199 30.9627 25.0026 34.2819 20.9669 34.5044V19.2808V19.2622Z"
        fill="white" />
    <path fill-rule="evenodd" clip-rule="evenodd"
        d="M20.9854 20.4302C23.7564 21.1904 25.8021 23.7123 25.8021 26.7162C25.8021 29.7201 23.7564 32.2605 20.9854 33.0022V20.4302Z"
        fill="#F3C921" />
    <path fill-rule="evenodd" clip-rule="evenodd"
        d="M20.9846 18.8154C23.1234 18.9267 25.0389 19.8723 26.4337 21.3187C27.8099 22.765 28.6468 24.712 28.6468 26.863C28.6468 29.014 27.7913 30.961 26.4337 32.4073C25.0575 33.8537 23.1419 34.7993 20.9846 34.9106H20.5197V18.7783H20.9846V18.7969V18.8154ZM25.6898 22.1717C24.6483 21.0776 23.2349 20.3359 21.6728 20.169V33.2603C23.2535 33.0749 24.6669 32.3331 25.6898 31.2577C26.8056 30.0709 27.4937 28.4762 27.4937 26.7332C27.4937 24.9902 26.8056 23.3769 25.6898 22.2087V22.1717Z"
        fill="#231815" />
    <path fill-rule="evenodd" clip-rule="evenodd"
        d="M27.2524 42.4H18.2699V17.293H19.3857V41.2689H27.2524V42.4Z" fill="#231815" />
    <path d="M21.6542 18.3315H20.5197V40.2677H21.6542V18.3315Z" fill="#231815" />
    <path fill-rule="evenodd" clip-rule="evenodd"
        d="M17.0055 12.8804C17.0055 12.8804 14.1229 11.0076 15.1272 6.03809C15.1272 6.03809 16.0013 9.26454 20.8552 9.87646L19.7393 11.0632C19.7393 11.0632 18.6979 12.3056 17.0055 12.8989"
        fill="#F3C921" />
    <path fill-rule="evenodd" clip-rule="evenodd"
        d="M16.7638 13.2329C16.7638 13.2329 13.6394 11.1932 14.6995 5.94555C14.7367 5.70449 14.9784 5.55615 15.2202 5.61178C15.3876 5.64886 15.5178 5.77866 15.555 5.927C15.555 5.927 16.3547 8.87532 20.911 9.45015C21.1528 9.48723 21.3202 9.6912 21.283 9.93226C21.283 10.025 21.2272 10.1177 21.1714 10.1733L20.0555 11.3415C19.944 11.4713 18.8467 12.6951 17.1357 13.2885C17.0056 13.3256 16.8568 13.3071 16.7452 13.2329H16.7638ZM15.6294 8.04089C15.462 10.2475 16.5034 11.323 16.8754 11.6382C17.8796 11.2488 18.512 10.5256 18.5491 10.47L18.9397 10.0435C17.0985 9.67266 16.1129 8.76406 15.5922 8.05943L15.6294 8.04089Z"
        fill="#231815" />
    <path fill-rule="evenodd" clip-rule="evenodd"
        d="M21.0226 19.241C23.6262 19.241 25.7649 17.1271 25.7649 14.5126C25.7649 11.8981 23.6262 9.78418 21.0226 9.78418C18.4189 9.78418 16.2802 11.9166 16.2802 14.5126C16.2802 17.1086 18.4189 19.241 21.0226 19.241Z"
        fill="white" />
    <path fill-rule="evenodd" clip-rule="evenodd"
        d="M21.0223 9.35889C22.4543 9.35889 23.7375 9.93372 24.686 10.8609C25.6159 11.788 26.1924 13.086 26.1924 14.5138C26.1924 15.9416 25.6159 17.2211 24.686 18.1667C23.7561 19.0939 22.4543 19.6687 21.0223 19.6687C19.5903 19.6687 18.3071 19.0939 17.3586 18.1667C16.4102 17.2396 15.8522 15.9416 15.8522 14.5138C15.8522 13.086 16.4288 11.8065 17.3586 10.8609C18.2885 9.93372 19.5903 9.35889 21.0223 9.35889ZM23.9049 11.6582C23.161 10.9165 22.1382 10.4715 21.0223 10.4715C19.9065 10.4715 18.8836 10.935 18.1397 11.6582C17.3958 12.3999 16.9495 13.4198 16.9495 14.5323C16.9495 15.6449 17.4144 16.6648 18.1397 17.4065C18.8836 18.1482 19.9065 18.5932 21.0223 18.5932C22.1382 18.5932 23.161 18.1297 23.9049 17.4065C24.6488 16.6648 25.0951 15.6449 25.0951 14.5323C25.0951 13.4198 24.6302 12.3999 23.9049 11.6582Z"
        fill="#231815" />
    <path fill-rule="evenodd" clip-rule="evenodd"
        d="M21.7296 17.1293C23.236 17.1293 24.4821 15.8869 24.4821 14.385C24.4821 12.883 23.236 11.6406 21.7296 11.6406C20.2233 11.6406 18.9772 12.883 18.9772 14.385C18.9772 15.8869 20.2233 17.1293 21.7296 17.1293Z"
        fill="white" />
    <path fill-rule="evenodd" clip-rule="evenodd"
        d="M21.413 11.3403C22.2498 11.3403 23.0123 11.6741 23.5703 12.2304C24.1282 12.7867 24.4629 13.5469 24.4629 14.3814C24.4629 15.2158 24.1282 15.976 23.5703 16.5323C23.0123 17.0886 22.2498 17.4224 21.413 17.4224C20.5761 17.4224 19.8136 17.0886 19.2557 16.5323C18.6977 15.976 18.363 15.2158 18.363 14.3814C18.363 13.5469 18.6977 12.7867 19.2557 12.2304C19.8136 11.6741 20.5761 11.3403 21.413 11.3403ZM22.9007 12.8794C22.5102 12.49 21.9895 12.2675 21.413 12.2675C20.8364 12.2675 20.2971 12.5085 19.9252 12.8794C19.5346 13.2688 19.3114 13.788 19.3114 14.3628C19.3114 14.9376 19.5532 15.4754 19.9252 15.8462C20.3157 16.2356 20.8364 16.4582 21.413 16.4582C21.9895 16.4582 22.5288 16.2171 22.9007 15.8462C23.2913 15.4568 23.5145 14.9376 23.5145 14.3628C23.5145 13.788 23.2727 13.2502 22.9007 12.8794Z"
        fill="#231815" />
    <path fill-rule="evenodd" clip-rule="evenodd"
        d="M22.3804 14.3617C22.6408 14.3617 22.8453 14.1577 22.8453 13.8981C22.8453 13.6385 22.6408 13.4346 22.3804 13.4346C22.12 13.4346 21.9155 13.6385 21.9155 13.8981C21.9155 14.1577 22.12 14.3617 22.3804 14.3617Z"
        fill="#231815" />
</svg>
