<svg width="25" height="25" viewBox="0 0 25 25" fill="none" xmlns="http://www.w3.org/2000/svg">
    <path fill-rule="evenodd" clip-rule="evenodd"
        d="M22.008 3.75C22.556 3.75 23 4.195 23 4.743V20.757C22.9982 21.0196 22.8931 21.271 22.7075 21.4568C22.5219 21.6426 22.2706 21.7479 22.008 21.75H2.992C2.72881 21.7497 2.4765 21.645 2.29049 21.4588C2.10448 21.2726 2 21.0202 2 20.757V4.743C2.00183 4.48038 2.1069 4.22902 2.29251 4.04322C2.47813 3.85742 2.72938 3.75209 2.992 3.75H22.008ZM17.4161 19.75C16.6401 17.351 14.5522 15.7308 12.5509 14.5577C14.4971 13.0019 18.5075 11.7464 20.9991 11.75V19.75H17.4161ZM3.99561 14.5317C9.21434 14.5324 13.655 16.3678 15.3057 19.7501H3.99561V14.5317ZM9.65088 11.75C9.12045 11.75 8.61174 11.5393 8.23667 11.1642C7.86159 10.7891 7.65088 10.2804 7.65088 9.75C7.65088 9.21957 7.86159 8.71086 8.23667 8.33579C8.61174 7.96071 9.12045 7.75 9.65088 7.75C10.1813 7.75 10.69 7.96071 11.0651 8.33579C11.4402 8.71086 11.6509 9.21957 11.6509 9.75C11.6509 10.2804 11.4402 10.7891 11.0651 11.1642C10.69 11.5393 10.1813 11.75 9.65088 11.75Z"
        fill="#333333" />
</svg>
