<svg width="25" height="25" viewBox="0 0 25 25" fill="none" xmlns="http://www.w3.org/2000/svg">
    <path
        d="M14.1667 10.5833V2.75C14.1667 2.47386 13.9428 2.25 13.6667 2.25H11.3333C11.0572 2.25 10.8333 2.47386 10.8333 2.75V10.5833H3C2.72386 10.5833 2.5 10.8072 2.5 11.0833V13.4167C2.5 13.6928 2.72386 13.9167 3 13.9167H10.8333V21.75C10.8333 22.0261 11.0572 22.25 11.3333 22.25H13.6667C13.9428 22.25 14.1667 22.0261 14.1667 21.75V13.9167H22C22.2761 13.9167 22.5 13.6928 22.5 13.4167V11.0833C22.5 10.8072 22.2761 10.5833 22 10.5833H14.1667Z"
        fill="#333333" />
</svg>
