<svg width="25" height="25" viewBox="0 0 25 25" fill="none" xmlns="http://www.w3.org/2000/svg">
    <path fill-rule="evenodd" clip-rule="evenodd"
        d="M18.6687 4.28926C18.6767 3.51028 17.8304 3.02164 17.1598 3.41811L12.5351 6.15233L7.44303 4.43939C6.70466 4.19101 5.97841 4.84493 6.14825 5.60521L7.03318 9.56658L5.60008 11.5628L2.21284 11.8675C1.8249 11.9024 1.62407 12.3479 1.85481 12.6617L3.86941 15.4017L3.11249 18.7173C3.0258 19.097 3.3874 19.4257 3.75716 19.3032L6.98559 18.2339L9.90503 19.9784C10.2394 20.1782 10.6637 19.9358 10.6615 19.5463L10.6523 17.9327L13.2869 21.6388C13.7382 22.2738 14.7101 22.1716 15.0196 21.4567L17.1539 16.5264L22.2804 14.9191C23.0237 14.686 23.2269 13.7301 22.6426 13.2149L18.6131 9.66146L18.6687 4.28926ZM18.8536 17.1269L18.1466 17.8339C17.9514 18.0292 17.9514 18.3457 18.1466 18.541L21.6816 22.0768C21.8768 22.2721 22.1934 22.2721 22.3887 22.0768L23.0965 21.369C23.2918 21.1738 23.2918 20.8571 23.0965 20.6619L19.5607 17.1269C19.3654 16.9317 19.0489 16.9317 18.8536 17.1269ZM8.6019 13.3249L7.74457 11.3188L6.4723 13.0911L4.29947 13.2865L5.59179 15.0442L5.10624 17.171L7.17721 16.4851L9.04995 17.6041L9.03756 15.4226L10.6805 13.9873L8.6019 13.3249Z"
        fill="#333333" />
</svg>
