<svg width="24" height="25" viewBox="0 0 24 25" fill="none" xmlns="http://www.w3.org/2000/svg">
    <mask id="path-2-inside-1_9827_245215" fill="white">
        <path fill-rule="evenodd" clip-rule="evenodd"
            d="M11.3753 1.65028C11.7405 1.35811 12.2595 1.35811 12.6247 1.65028L22.6247 9.65028C22.8619 9.84006 23 10.1274 23 10.4312V22.4312C23 22.9834 22.5523 23.4312 22 23.4312H2C1.44772 23.4312 1 22.9834 1 22.4312V10.4312C1 10.1274 1.13809 9.84006 1.3753 9.65028L11.3753 1.65028ZM16.9911 14.8694C17.0009 14.704 16.8656 14.5693 16.6999 14.5693H15.4999C15.2238 14.5693 15.0043 14.7949 14.9588 15.0672C14.7216 16.4871 13.4872 17.5693 11.9999 17.5693C10.5127 17.5693 9.27825 16.4871 9.04108 15.0672C8.99558 14.7949 8.77609 14.5693 8.49995 14.5693L7.29995 14.5693C7.13426 14.5693 6.99901 14.704 7.0088 14.8694C7.16397 17.4911 9.33926 19.5693 11.9999 19.5693C14.6606 19.5693 16.8359 17.4911 16.9911 14.8694Z" />
    </mask>
    <path fill-rule="evenodd" clip-rule="evenodd"
        d="M11.3753 1.65028C11.7405 1.35811 12.2595 1.35811 12.6247 1.65028L22.6247 9.65028C22.8619 9.84006 23 10.1274 23 10.4312V22.4312C23 22.9834 22.5523 23.4312 22 23.4312H2C1.44772 23.4312 1 22.9834 1 22.4312V10.4312C1 10.1274 1.13809 9.84006 1.3753 9.65028L11.3753 1.65028ZM16.9911 14.8694C17.0009 14.704 16.8656 14.5693 16.6999 14.5693H15.4999C15.2238 14.5693 15.0043 14.7949 14.9588 15.0672C14.7216 16.4871 13.4872 17.5693 11.9999 17.5693C10.5127 17.5693 9.27825 16.4871 9.04108 15.0672C8.99558 14.7949 8.77609 14.5693 8.49995 14.5693L7.29995 14.5693C7.13426 14.5693 6.99901 14.704 7.0088 14.8694C7.16397 17.4911 9.33926 19.5693 11.9999 19.5693C14.6606 19.5693 16.8359 17.4911 16.9911 14.8694Z"
        fill="#F2B602" />
    <path
        d="M12.6247 1.65028L11.3753 3.21202L11.3753 3.21202L12.6247 1.65028ZM11.3753 1.65028L12.6247 3.21202L12.6247 3.21202L11.3753 1.65028ZM22.6247 9.65028L23.8741 8.08855L23.8741 8.08855L22.6247 9.65028ZM1.3753 9.65028L0.125915 8.08855L0.125913 8.08855L1.3753 9.65028ZM16.9911 14.8694L14.9946 14.7512L14.9946 14.7512L16.9911 14.8694ZM14.9588 15.0672L12.9862 14.7377L12.9861 14.7377L14.9588 15.0672ZM9.04108 15.0672L11.0137 14.7377L9.04108 15.0672ZM8.49995 14.5693V12.5693H8.49995L8.49995 14.5693ZM7.29995 14.5693L7.29995 12.5693H7.29994L7.29995 14.5693ZM7.0088 14.8694L9.00531 14.7512V14.7512L7.0088 14.8694ZM13.8741 0.0885466C12.7784 -0.787979 11.2216 -0.787979 10.1259 0.0885466L12.6247 3.21202C12.2595 3.5042 11.7405 3.5042 11.3753 3.21202L13.8741 0.0885466ZM23.8741 8.08855L13.8741 0.0885458L11.3753 3.21202L21.3753 11.212L23.8741 8.08855ZM25 10.4312C25 9.5198 24.5857 8.65786 23.8741 8.08855L21.3753 11.212C21.1381 11.0222 21 10.7349 21 10.4312H25ZM25 22.4312V10.4312H21V22.4312H25ZM22 25.4312C23.6569 25.4312 25 24.088 25 22.4312H21C21 21.8789 21.4477 21.4312 22 21.4312V25.4312ZM2 25.4312H22V21.4312H2V25.4312ZM-1 22.4312C-1 24.088 0.343145 25.4312 2 25.4312V21.4312C2.55229 21.4312 3 21.8789 3 22.4312H-1ZM-1 10.4312V22.4312H3V10.4312H-1ZM0.125913 8.08855C-0.585731 8.65786 -1 9.5198 -1 10.4312H3C3 10.7349 2.86191 11.0222 2.6247 11.212L0.125913 8.08855ZM10.1259 0.0885458L0.125915 8.08855L2.62469 11.212L12.6247 3.21202L10.1259 0.0885458ZM16.6999 16.5693C15.7928 16.5693 14.9318 15.8115 14.9946 14.7512L18.9876 14.9875C19.0699 13.5965 17.9384 12.5693 16.6999 12.5693V16.5693ZM15.4999 16.5693H16.6999V12.5693H15.4999V16.5693ZM16.9315 15.3968C16.8503 15.8829 16.3959 16.5693 15.4999 16.5693V12.5693C14.0517 12.5693 13.1583 13.7069 12.9862 14.7377L16.9315 15.3968ZM11.9999 19.5693C14.4806 19.5693 16.5359 17.7648 16.9315 15.3968L12.9861 14.7377C12.9073 15.2095 12.4937 15.5693 11.9999 15.5693V19.5693ZM7.06841 15.3968C7.46396 17.7648 9.51925 19.5693 11.9999 19.5693V15.5693C11.5062 15.5693 11.0925 15.2095 11.0137 14.7377L7.06841 15.3968ZM8.49995 16.5693C7.60401 16.5693 7.14961 15.8829 7.06841 15.3968L11.0137 14.7377C10.8416 13.7069 9.94817 12.5693 8.49995 12.5693V16.5693ZM7.29995 16.5693L8.49995 16.5693L8.49995 12.5693L7.29995 12.5693L7.29995 16.5693ZM9.00531 14.7512C9.06806 15.8115 8.20706 16.5693 7.29996 16.5693L7.29994 12.5693C6.06147 12.5693 4.92996 13.5965 5.0123 14.9876L9.00531 14.7512ZM11.9999 17.5693C10.4042 17.5693 9.0983 16.3224 9.00531 14.7512L5.01229 14.9875C5.22964 18.6598 8.27428 21.5693 11.9999 21.5693V17.5693ZM14.9946 14.7512C14.9016 16.3224 13.5957 17.5693 11.9999 17.5693V21.5693C15.7256 21.5693 18.7703 18.6598 18.9876 14.9875L14.9946 14.7512Z"
        fill="#F2B602" mask="url(#path-2-inside-1_9827_245215)" />
</svg>
