<svg width="25" height="25" viewBox="0 0 25 25" fill="none" xmlns="http://www.w3.org/2000/svg">
    <path
        d="M10.3884 15.4815C10.9305 16.0188 11.6765 16.3506 12.5 16.3506C14.1521 16.3506 15.4923 15.0151 15.5 13.3648L15.5 13.3506L15.5 13.3364C15.4962 12.5185 15.1651 11.7779 14.631 11.2389L14.6213 11.2293L14.6116 11.2196C14.0695 10.6824 13.3235 10.3506 12.5 10.3506C10.8431 10.3506 9.5 11.6937 9.5 13.3506C9.5 14.1741 9.83182 14.9201 10.369 15.4622L10.3787 15.4719L10.3884 15.4815Z"
        fill="#333333" />
    <path fill-rule="evenodd" clip-rule="evenodd"
        d="M7.5 2.65039C7.12123 2.65039 6.77497 2.86439 6.60557 3.20318L5.78187 4.85059H2.59122C2.00052 4.85059 1.50002 5.32659 1.50002 5.91309V20.7881C1.49915 20.9271 1.52672 21.065 1.58114 21.1937C1.63556 21.3224 1.71577 21.4395 1.81715 21.5382C1.91854 21.637 2.0391 21.7154 2.17194 21.769C2.30477 21.8226 2.44726 21.8503 2.59122 21.8506H22.4088C22.9995 21.8506 23.5 21.3746 23.5 20.7881V5.91309C23.5 5.3234 23.0116 4.85059 22.4088 4.85059H15.2181L14.3944 3.20318C14.225 2.86439 13.8788 2.65039 13.5 2.65039H7.5ZM16.0355 16.8861C15.0979 17.8238 13.8261 18.3506 12.5 18.3506C11.1739 18.3506 9.90215 17.8238 8.96447 16.8861C8.02678 15.9484 7.5 14.6767 7.5 13.3506C7.5 12.0245 8.02678 10.7527 8.96447 9.81505C9.90215 8.87737 11.1739 8.35059 12.5 8.35059C13.8261 8.35059 15.0979 8.87737 16.0355 9.81505C16.9732 10.7527 17.5 12.0245 17.5 13.3506C17.5 14.6767 16.9732 15.9484 16.0355 16.8861ZM18.9393 10.9112C19.2206 11.1926 19.6022 11.3506 20 11.3506C20.3978 11.3506 20.7794 11.1926 21.0607 10.9112C21.342 10.6299 21.5 10.2484 21.5 9.85059C21.5 9.45276 21.342 9.07123 21.0607 8.78993C20.7794 8.50862 20.3978 8.35059 20 8.35059C19.6022 8.35059 19.2206 8.50862 18.9393 8.78993C18.658 9.07123 18.5 9.45276 18.5 9.85059C18.5 10.2484 18.658 10.6299 18.9393 10.9112Z"
        fill="#333333" />
</svg>
