<svg width="24" height="24" viewBox="0 0 24 24" fill="none" xmlns="http://www.w3.org/2000/svg">
    <path fill-rule="evenodd" clip-rule="evenodd" d="M11.3753 1.21913C11.7405 0.926956 12.2595 0.926956 12.6247 1.21913L22.6247 9.21913C22.8619 9.4089 23 9.69622 23 10V22C23 22.5523 22.5523 23 22 23H2C1.44772 23 1 22.5523 1 22V10C1 9.69622 1.13809 9.4089 1.3753 9.21913L11.3753 1.21913ZM3 10.4806L12 3.28062L21 10.4806V21H3V10.4806Z" fill="#949496"/>
    <path d="M7.5 16.5C7.5 16.2239 7.72386 16 8 16H16C16.2761 16 16.5 16.2239 16.5 16.5V17.5C16.5 17.7761 16.2761 18 16 18H8C7.72386 18 7.5 17.7761 7.5 17.5V16.5Z" fill="#949496"/>
</svg>
