<svg width="17" height="17" viewBox="0 0 17 17" fill="none" xmlns="http://www.w3.org/2000/svg">
    <g clip-path="url(#clip0_7996_55999)">
        <path fill-rule="evenodd" clip-rule="evenodd"
            d="M1.44019 7.04427C1.44019 4.65682 3.32614 2.71094 5.77352 2.71094C6.99025 2.71094 7.8822 3.17151 8.46546 3.63435C8.57841 3.72398 8.67987 3.8137 8.77014 3.90025C8.85934 3.81404 8.95962 3.72474 9.07135 3.63555C9.65394 3.17049 10.5465 2.71094 11.7735 2.71094C14.2469 2.71094 16.1069 4.65962 16.1069 7.04427C16.1069 8.15578 15.6064 9.23468 14.9463 10.1861C14.28 11.1464 13.4047 12.0432 12.5504 12.8046C11.6931 13.5688 10.8388 14.2125 10.2004 14.6645C9.8806 14.8909 9.61354 15.0702 9.42549 15.1935C8.97487 15.4889 8.59576 15.5044 8.12154 15.1935C7.9335 15.0702 7.66644 14.8909 7.34664 14.6645C6.70821 14.2125 5.85389 13.5688 4.9966 12.8046C4.1423 12.0432 3.26705 11.1464 2.60078 10.1861C1.94068 9.23468 1.44019 8.15578 1.44019 7.04427ZM8.77352 14.0263C8.60359 13.9138 8.37931 13.7619 8.11707 13.5763C7.50549 13.1433 6.69315 12.5307 5.88377 11.8093C5.07141 11.0852 4.27999 10.2674 3.69626 9.42602C3.10636 8.57579 2.77352 7.76609 2.77352 7.04427C2.77352 5.38166 4.07401 4.04427 5.77352 4.04427C6.63023 4.04427 7.23828 4.36267 7.63666 4.67879C7.94903 4.92667 8.29265 5.27294 8.52098 5.51416C8.66032 5.66136 8.89924 5.65961 9.03671 5.51066C9.25991 5.26879 9.59531 4.92335 9.90317 4.67759C10.2964 4.36369 10.9038 4.04427 11.7735 4.04427C13.4935 4.04427 14.7735 5.37886 14.7735 7.04427C14.7735 7.76609 14.4407 8.57579 13.8508 9.42602C13.267 10.2674 12.4756 11.0852 11.6633 11.8093C10.8539 12.5307 10.0415 13.1433 9.42997 13.5763C9.16772 13.7619 8.94345 13.9138 8.77352 14.0263Z"
            fill="#FF443D" />
    </g>
    <defs>
        <clipPath id="clip0_7996_55999">
            <rect width="16" height="16" fill="white" transform="translate(0.773438 0.5)" />
        </clipPath>
    </defs>
</svg>
