<svg width="20" height="20" viewBox="0 0 20 20" fill="none" xmlns="http://www.w3.org/2000/svg">
    <path fill-rule="evenodd" clip-rule="evenodd"
        d="M0.833252 8.18034C0.833252 5.19602 3.1907 2.76367 6.24992 2.76367C7.77083 2.76367 8.88576 3.33938 9.61485 3.91794C9.75603 4.02997 9.88286 4.14213 9.99569 4.25031C10.1072 4.14254 10.2325 4.03092 10.3722 3.91944C11.1004 3.33811 12.2162 2.76367 13.7499 2.76367C16.8417 2.76367 19.1666 5.19952 19.1666 8.18034C19.1666 9.56973 18.541 10.9183 17.7158 12.1076C16.883 13.308 15.7889 14.429 14.7211 15.3808C13.6495 16.3359 12.5815 17.1406 11.7835 17.7056C11.3838 17.9886 11.0499 18.2128 10.8149 18.3669C10.2516 18.7361 9.77772 18.7555 9.18495 18.3669C8.94989 18.2128 8.61606 17.9886 8.21631 17.7056C7.41829 17.1406 6.35038 16.3359 5.27877 15.3808C4.21089 14.429 3.11683 13.308 2.28399 12.1076C1.45887 10.9183 0.833252 9.56973 0.833252 8.18034Z"
        fill="#FF443D" />
</svg>
