<svg width="180" height="23" viewBox="0 0 180 23" fill="none" xmlns="http://www.w3.org/2000/svg">
    <g clip-path="url(#clip0_6402_164413)">
        <path
            d="M91.7165 0H87.9299V3.24089H91.7165C93.957 3.24089 95.7942 4.71657 95.7942 6.9551C95.7942 9.19363 93.9626 10.6692 91.7165 10.6692H86.3672V5.94717H83.1016V22.6526H86.3672V13.9101H91.7165C95.7663 13.9101 99.0599 10.9811 99.0599 6.9551C99.0599 2.92908 95.7663 0 91.7165 0Z"
            fill="#333333" />
        <path d="M86.3605 0H80.1094L83.0949 3.24642H86.3605V0Z"
            fill="url(#paint0_linear_6402_164413)" />
        <path
            d="M70.2109 14.8179V22.558H73.6054V15.0573C73.6054 11.0758 75.3754 9.38304 78.4562 9.38304V6.00293C74.6977 6.00293 70.3118 7.89069 70.2109 14.8179Z"
            fill="#333333" />
        <path
            d="M171.773 14.8179V22.558H175.134V15.0573C175.134 11.0758 176.899 9.38304 179.985 9.38304V6.00293C176.255 6.00293 171.852 7.89069 171.773 14.8179Z"
            fill="#333333" />
        <path
            d="M27.2642 7.51193C26.0033 6.56795 24.5027 5.99196 22.9309 5.84872C21.359 5.70549 19.7781 6.00063 18.3657 6.70099C16.9532 7.40135 15.765 8.47928 14.9345 9.81368C14.104 11.1481 13.6641 12.6862 13.6641 14.2554C13.6641 15.8245 14.104 17.3626 14.9345 18.697C15.765 20.0314 16.9532 21.1093 18.3657 21.8096C19.7781 22.51 21.359 22.8051 22.9309 22.6619C24.5027 22.5187 26.0033 21.9428 27.2642 20.9988V22.6693H30.625V6.2701H27.2642V7.51193ZM22.1669 19.3227C21.1588 19.3227 20.1733 19.0254 19.335 18.4686C18.4968 17.9118 17.8435 17.1205 17.4577 16.1945C17.0719 15.2686 16.9709 14.2497 17.1676 13.2667C17.3643 12.2838 17.8497 11.3809 18.5626 10.6722C19.2755 9.96353 20.1837 9.48091 21.1725 9.28538C22.1612 9.08986 23.1861 9.1902 24.1175 9.57373C25.0489 9.95727 25.845 10.6067 26.4051 11.44C26.9652 12.2734 27.2642 13.2531 27.2642 14.2554C27.2597 15.5998 26.7186 16.8875 25.7597 17.8356C24.8008 18.7836 23.5025 19.3145 22.1501 19.3115L22.1669 19.3227Z"
            fill="#333333" />
        <path
            d="M127.932 19.312C127.036 19.3137 126.155 19.0807 125.379 18.6363C124.602 18.1919 123.957 17.5518 123.509 16.7806C123.06 16.0095 122.824 15.1344 122.824 14.2437C122.824 13.353 123.061 12.478 123.51 11.707C123.958 10.936 124.603 10.2962 125.38 9.85206C126.157 9.40795 127.038 9.17525 127.934 9.17734C128.83 9.17944 129.709 9.41628 130.484 9.86402C131.258 10.3118 131.901 10.9546 132.346 11.7277L135.297 10.0571C134.37 8.43668 132.93 7.16664 131.201 6.4449C129.472 5.72316 127.552 5.59028 125.739 6.06696C123.926 6.54364 122.322 7.60305 121.178 9.08021C120.034 10.5574 119.414 12.3693 119.414 14.2335C119.414 16.0977 120.034 17.9096 121.178 19.3867C122.322 20.8639 123.926 21.9234 125.739 22.4C127.552 22.8767 129.472 22.7438 131.201 22.0221C132.93 21.3004 134.37 20.0303 135.297 18.4099L132.351 16.7393C131.908 17.5173 131.266 18.1649 130.49 18.6167C129.713 19.0685 128.831 19.3084 127.932 19.312Z"
            fill="#333333" />
        <path
            d="M58.5809 5.81352C57.0611 5.81293 55.5691 6.21779 54.2604 6.98587C52.9518 7.75396 51.8745 8.8571 51.1409 10.1802C50.4072 11.5033 50.0443 12.9979 50.0897 14.508C50.1352 16.0181 50.5875 17.4884 51.3995 18.7655C52.2114 20.0426 53.3532 21.0797 54.7058 21.7686C56.0583 22.4574 57.5721 22.7728 59.089 22.6818C60.606 22.5908 62.0706 22.0968 63.33 21.2513C64.5894 20.4058 65.5975 19.2397 66.2491 17.8749H62.1434C61.502 18.5003 60.7055 18.9456 59.8348 19.1657C58.9642 19.3858 58.0504 19.3727 57.1865 19.1277C56.3226 18.8827 55.5394 18.4147 54.9165 17.7711C54.2936 17.1275 53.8533 16.3313 53.6404 15.4637H67.0837V14.0604C67.0895 13.9956 67.0895 13.9304 67.0837 13.8655C66.9841 11.6925 66.0439 9.64168 64.4596 8.14131C62.8752 6.64093 60.769 5.80695 58.5809 5.81352ZM53.6797 12.8855C53.9804 11.8234 54.6219 10.8881 55.5067 10.2219C56.3915 9.5557 57.471 9.19518 58.5809 9.19518C59.6907 9.19518 60.7702 9.5557 61.655 10.2219C62.5398 10.8881 63.1813 11.8234 63.4821 12.8855H53.6797Z"
            fill="#333333" />
        <path
            d="M108.524 5.8135C107.004 5.81192 105.511 6.21596 104.202 6.98341C102.893 7.75086 101.815 8.85357 101.08 10.1765C100.346 11.4995 99.9823 12.9942 100.027 14.5045C100.072 16.0149 100.524 17.4857 101.335 18.7632C102.147 20.0408 103.289 21.0783 104.641 21.7676C105.994 22.4569 107.508 22.7726 109.025 22.6819C110.542 22.5911 112.007 22.0972 113.267 21.2516C114.527 20.4061 115.535 19.2399 116.187 17.8749H112.081C111.44 18.5003 110.643 18.9456 109.772 19.1657C108.902 19.3858 107.988 19.3727 107.124 19.1277C106.26 18.8827 105.477 18.4146 104.854 17.7711C104.231 17.1275 103.791 16.3313 103.578 15.4637H117.021V14.0604C117.021 13.9936 117.021 13.9268 117.021 13.8655C116.922 11.6934 115.982 9.64342 114.399 8.14319C112.816 6.64297 110.711 5.80837 108.524 5.8135ZM103.623 12.8854C103.923 11.8233 104.565 10.888 105.45 10.2219C106.335 9.55568 107.414 9.19517 108.524 9.19517C109.634 9.19517 110.713 9.55568 111.598 10.2219C112.483 10.888 113.124 11.8233 113.425 12.8854H103.623Z"
            fill="#333333" />
        <path
            d="M160.852 5.8135C159.332 5.81192 157.84 6.21596 156.53 6.98341C155.221 7.75086 154.143 8.85357 153.408 10.1765C152.674 11.4995 152.31 12.9942 152.355 14.5045C152.4 16.0149 152.852 17.4857 153.664 18.7632C154.475 20.0408 155.617 21.0783 156.97 21.7676C158.322 22.4569 159.836 22.7726 161.353 22.6819C162.87 22.5911 164.335 22.0972 165.595 21.2516C166.855 20.4061 167.863 19.2399 168.515 17.8749H164.409C163.768 18.5003 162.971 18.9456 162.1 19.1657C161.23 19.3858 160.316 19.3727 159.452 19.1277C158.588 18.8827 157.805 18.4146 157.182 17.7711C156.559 17.1275 156.119 16.3313 155.906 15.4637H169.349V14.0604C169.355 13.9955 169.355 13.9303 169.349 13.8655C169.25 11.6934 168.31 9.64342 166.727 8.14319C165.144 6.64297 163.039 5.80837 160.852 5.8135ZM155.951 12.8854C156.252 11.8233 156.893 10.888 157.778 10.2219C158.663 9.55568 159.742 9.19517 160.852 9.19517C161.962 9.19517 163.041 9.55568 163.926 10.2219C164.811 10.888 165.453 11.8233 165.753 12.8854H155.951Z"
            fill="#333333" />
        <path
            d="M151.654 6.84365H146.848L141.129 12.5291V5.81348H137.734V22.7027H141.129V17.3013L141.823 16.6108L147.946 22.7027L152.684 22.6359L144.226 14.2275L151.654 6.84365Z"
            fill="#333333" />
        <path d="M3.39443 19.3231V0.0283203H0V22.7032H3.39443H13.5889L11.6284 19.3231H3.39443Z"
            fill="#333333" />
        <path
            d="M40.8256 12.7021C37.7504 12.4515 37.1735 11.7944 37.1735 11.0872C37.1735 9.91228 38.9603 9.07144 40.848 9.07144C42.7356 9.07144 44.5056 9.82318 46.0852 10.5916L47.3064 7.65703C45.3701 6.43724 43.1392 5.7583 40.848 5.69141C37.4199 5.69141 33.7734 7.70716 33.7734 11.0872C33.7734 12.5684 34.7425 15.4975 40.9096 15.748C43.6206 15.8594 44.2704 16.8617 44.2704 17.5578C44.2704 18.4432 42.9989 19.5402 40.5343 19.4344C38.69 19.3674 36.8822 18.9039 35.2354 18.0757C35.2354 18.0757 34.6137 19.891 34.1151 21.1328C36.0707 22.2178 38.2844 22.7583 40.5231 22.6975C44.5897 22.6975 47.6536 20.4702 47.6536 17.452C47.6929 14.5787 45.6315 13.0919 40.8256 12.7021Z"
            fill="#333333" />
    </g>
    <defs>
        <linearGradient id="paint0_linear_6402_164413" x1="80.1094" y1="1.62043" x2="86.3605"
            y2="1.62043" gradientUnits="userSpaceOnUse">
            <stop stop-color="#FFEE00" />
            <stop offset="1" stop-color="#FFBB00" />
        </linearGradient>
        <clipPath id="clip0_6402_164413">
            <rect width="180" height="23" fill="white" />
        </clipPath>
    </defs>
</svg>
