<svg width="40" height="40" viewBox="0 0 40 40" fill="none" xmlns="http://www.w3.org/2000/svg">
    <rect width="40" height="40" rx="20" fill="url(#paint0_linear_9944_407)" />
    <path fill-rule="evenodd" clip-rule="evenodd"
        d="M20 15.5C17.5147 15.5 15.5 17.5147 15.5 20C15.5 22.4853 17.5147 24.5 20 24.5C22.4853 24.5 24.5 22.4853 24.5 20C24.5 17.5147 22.4853 15.5 20 15.5ZM17.5 20C17.5 18.6193 18.6193 17.5 20 17.5C21.3807 17.5 22.5 18.6193 22.5 20C22.5 21.3807 21.3807 22.5 20 22.5C18.6193 22.5 17.5 21.3807 17.5 20Z"
        fill="#E75F5F" />
    <path fill-rule="evenodd" clip-rule="evenodd"
        d="M20.7071 9.79289C20.3166 9.40237 19.6834 9.40237 19.2929 9.79289L16.8033 12.2825H13.2825C12.7302 12.2825 12.2825 12.7302 12.2825 13.2825V16.8033L9.79289 19.2929C9.40237 19.6834 9.40237 20.3166 9.79289 20.7071L12.2825 23.1967V26.7175C12.2825 27.2698 12.7302 27.7175 13.2825 27.7175H16.8033L19.2929 30.2071C19.6834 30.5976 20.3166 30.5976 20.7071 30.2071L23.1967 27.7175H26.7175C27.2698 27.7175 27.7175 27.2698 27.7175 26.7175V23.1967L30.2071 20.7071C30.3947 20.5196 30.5 20.2652 30.5 20C30.5 19.7348 30.3947 19.4804 30.2071 19.2929L27.7175 16.8033V13.2825C27.7175 12.7302 27.2698 12.2825 26.7175 12.2825H23.1967L20.7071 9.79289ZM17.9246 13.9896L20 11.9142L22.0754 13.9896C22.2629 14.1771 22.5173 14.2825 22.7825 14.2825H25.7175V17.2175C25.7175 17.4827 25.8229 17.7371 26.0104 17.9246L28.0858 20L26.0104 22.0754C25.8229 22.2629 25.7175 22.5173 25.7175 22.7825V25.7175H22.7825C22.5173 25.7175 22.2629 25.8229 22.0754 26.0104L20 28.0858L17.9246 26.0104C17.7371 25.8229 17.4827 25.7175 17.2175 25.7175H14.2825V22.7825C14.2825 22.5173 14.1771 22.2629 13.9896 22.0754L11.9142 20L13.9896 17.9246C14.1771 17.7371 14.2825 17.4827 14.2825 17.2175V14.2825H17.2175C17.4827 14.2825 17.7371 14.1771 17.9246 13.9896Z"
        fill="#E75F5F" />
    <defs>
        <linearGradient id="paint0_linear_9944_407" x1="0" y1="0" x2="40" y2="40"
            gradientUnits="userSpaceOnUse">
            <stop stop-color="#FF0A0A" stop-opacity="0.16" />
            <stop offset="1" stop-color="#FF8D0A" stop-opacity="0.04" />
        </linearGradient>
    </defs>
</svg>
