<svg width="40" height="40" viewBox="0 0 40 40" fill="none" xmlns="http://www.w3.org/2000/svg">
    <rect width="40" height="40" rx="20" fill="url(#paint0_linear_9944_379)"/>
    <path d="M20 13.3359C15.5817 13.3359 12 16.9177 12 21.3359V24.4395H10C8.89543 24.4395 8 23.544 8 22.4395V21.4395C8 20.3349 8.89543 19.4395 10 19.4395H10.1796C11.0657 14.8235 15.1256 11.3359 20 11.3359C24.8744 11.3359 28.9343 14.8235 29.8204 19.4395H30C31.1046 19.4395 32 20.3349 32 21.4395V22.4395C32 23.544 31.1046 24.4395 30 24.4395H28V21.3359C28 16.9177 24.4183 13.3359 20 13.3359Z" fill="#FAA019"/>
    <path fill-rule="evenodd" clip-rule="evenodd" d="M20 28.6641C23.866 28.6641 27 25.5301 27 21.6641C27 17.7981 23.866 14.6641 20 14.6641C16.134 14.6641 13 17.7981 13 21.6641C13 25.5301 16.134 28.6641 20 28.6641ZM25 21.6641C25 24.4255 22.7614 26.6641 20 26.6641C17.2386 26.6641 15 24.4255 15 21.6641C15 18.9026 17.2386 16.6641 20 16.6641C22.7614 16.6641 25 18.9026 25 21.6641Z" fill="#FAA019"/>
    <defs>
        <linearGradient id="paint0_linear_9944_379" x1="0" y1="0" x2="40" y2="40" gradientUnits="userSpaceOnUse">
            <stop stop-color="#FF8D0A" stop-opacity="0.16"/>
            <stop offset="1" stop-color="#FFE70A" stop-opacity="0.04"/>
        </linearGradient>
    </defs>
</svg>
