<svg width="40" height="40" viewBox="0 0 40 40" fill="none" xmlns="http://www.w3.org/2000/svg">
    <rect width="40" height="40" rx="20" fill="url(#paint0_linear_9944_618)" />
    <path
        d="M20 21.959C20.6903 21.959 21.25 21.3994 21.25 20.709C21.25 20.0187 20.6903 19.459 20 19.459C19.3097 19.459 18.75 20.0187 18.75 20.709C18.75 21.3994 19.3097 21.959 20 21.959Z"
        fill="#E74B89" />
    <path
        d="M19 26.904V23.8023C19.315 23.904 19.6511 23.959 20 23.959C20.3489 23.959 20.685 23.904 21 23.8023V26.9059C22.9356 25.9341 25.8698 25.683 28 25.7419V16.9766C27.3254 16.8913 26.21 17.0051 25.5956 17.1424C24.4239 17.4045 24.1628 15.6546 25.3371 15.264C26.5113 14.8735 28.198 14.9215 29.2381 15.1764L29.619 15.2698C29.8427 15.3246 30 15.5252 30 15.7554V27.3272C30 27.6167 29.7549 27.8457 29.466 27.826L28.9321 27.7896C26.0375 27.5926 22.6449 28.1467 20.2908 29.7095C20.1157 29.8257 19.887 29.8257 19.712 29.7095C17.3569 28.1458 13.9641 27.5905 11.0679 27.7877L10.534 27.824C10.2451 27.8437 10 27.6147 10 27.3252V15.7535C10 15.5232 10.1573 15.3227 10.381 15.2679L10.7619 15.1745C11.8637 14.9045 13.9187 15.0412 14.8224 15.354C16.5 15.9345 15.7349 17.7341 14.8224 17.315C14.1603 17.0109 12.778 16.8762 12 16.9746V25.7399C14.1302 25.681 17.0644 25.9322 19 26.904Z"
        fill="#E74B89" />
    <path fill-rule="evenodd" clip-rule="evenodd"
        d="M20.5 18.5313C20.7761 18.5313 21 18.3075 21 18.0313V17.0582C22.4457 16.6279 23.5 15.2886 23.5 13.7031C23.5 11.7701 21.933 10.2031 20 10.2031C18.067 10.2031 16.5 11.7701 16.5 13.7031V14.1067C16.5 14.3828 16.7239 14.6067 17 14.6067H18C18.2761 14.6067 18.5 14.3828 18.5 14.1067V13.7031C18.5 12.8747 19.1716 12.2031 20 12.2031C20.8284 12.2031 21.5 12.8747 21.5 13.7031C21.5 14.5316 20.8284 15.2031 20 15.2031C19.4477 15.2031 19 15.6508 19 16.2031V18.0313C19 18.3075 19.2239 18.5313 19.5 18.5313H20.5Z"
        fill="#E74B89" />
    <defs>
        <linearGradient id="paint0_linear_9944_618" x1="0" y1="0" x2="40" y2="40"
            gradientUnits="userSpaceOnUse">
            <stop stop-color="#FF0AE7" stop-opacity="0.16" />
            <stop offset="1" stop-color="#FF0A0A" stop-opacity="0.04" />
        </linearGradient>
    </defs>
</svg>
