<svg width="25" height="24" viewBox="0 0 25 24" fill="none" xmlns="http://www.w3.org/2000/svg">
    <path fill-rule="evenodd" clip-rule="evenodd"
        d="M12.375 17.5C16.7933 17.5 20.375 13.9183 20.375 9.5C20.375 5.08172 16.7933 1.5 12.375 1.5C7.95672 1.5 4.375 5.08172 4.375 9.5C4.375 13.9183 7.95672 17.5 12.375 17.5ZM9.80357 19C7.91002 19 6.375 20.535 6.375 22.4286C6.375 22.7442 6.63084 23 6.94643 23H17.8036C18.1192 23 18.375 22.7442 18.375 22.4286C18.375 20.535 16.84 19 14.9464 19H9.80357ZM17.0749 9.5C17.2406 9.5 17.3759 9.63464 17.3661 9.80004C17.2109 12.4218 15.0356 14.5 12.3749 14.5C9.71426 14.5 7.53897 12.4218 7.3838 9.80005C7.37401 9.63465 7.50926 9.50001 7.67495 9.50001L8.87495 9.5C9.15109 9.5 9.37058 9.72554 9.41608 9.99791C9.65325 11.4178 10.8877 12.5 12.3749 12.5C13.8622 12.5 15.0966 11.4178 15.3338 9.99791C15.3793 9.72554 15.5988 9.5 15.8749 9.5H17.0749Z"
        fill="#F2B602" />
</svg>
