<svg width="25" height="24" viewBox="0 0 25 24" fill="none" xmlns="http://www.w3.org/2000/svg">
    <path fill-rule="evenodd" clip-rule="evenodd" d="M12.375 3C8.78515 3 5.875 5.91015 5.875 9.5C5.875 13.0899 8.78515 16 12.375 16C15.9649 16 18.875 13.0899 18.875 9.5C18.875 5.91015 15.9649 3 12.375 3ZM3.875 9.5C3.875 4.80558 7.68058 1 12.375 1C17.0694 1 20.875 4.80558 20.875 9.5C20.875 14.1944 17.0694 18 12.375 18C7.68058 18 3.875 14.1944 3.875 9.5Z" fill="#949496"/>
    <path d="M6.375 20.5C6.375 20.2239 6.59886 20 6.875 20H17.875C18.1511 20 18.375 20.2239 18.375 20.5V21.5C18.375 21.7761 18.1511 22 17.875 22H6.875C6.59886 22 6.375 21.7761 6.375 21.5V20.5Z" fill="#949496"/>
</svg>
