<svg width="40" height="40" viewBox="0 0 40 40" fill="none" xmlns="http://www.w3.org/2000/svg">
    <rect width="40" height="40" rx="20" fill="url(#paint0_linear_9944_674)" />
    <path
        d="M17.437 17.4506C17.5525 17.2506 17.4081 17.0006 17.1772 17.0006H14.608C14.2449 17.0006 13.9102 17.1975 13.7339 17.5149L8.73388 26.5149C8.5618 26.8247 8.56648 27.2023 8.74616 27.5077C8.92585 27.8131 9.25371 28.0006 9.60803 28.0006H29.608C29.9624 28.0006 30.2902 27.8131 30.4699 27.5077C30.6496 27.2023 30.6543 26.8247 30.4822 26.5149L26.8703 20.0135C26.7571 19.8097 26.4648 19.8073 26.3482 20.0092L25.5887 21.3247C25.5008 21.4769 25.4993 21.664 25.5846 21.8176L27.9085 26.0006H11.3075L15.1964 19.0006H16.2534C16.4321 19.0006 16.5971 18.9053 16.6864 18.7506L17.437 17.4506Z"
        fill="#42BDA0" />
    <path fill-rule="evenodd" clip-rule="evenodd"
        d="M19.874 21.6139L20.1061 22.2085L20.7371 22.1122L24.7567 15.1501L23.8936 14.6517L19.874 21.6139ZM21.7513 23.9805C21.9014 23.9576 22.033 23.8678 22.1089 23.7363L27.2388 14.851C27.3768 14.6119 27.2949 14.3061 27.0557 14.168L23.5945 12.1697C23.3554 12.0316 23.0496 12.1136 22.9115 12.3527L17.7816 21.2379C17.7057 21.3694 17.6937 21.5283 17.7489 21.6697L18.6796 24.0543C18.7647 24.2723 18.9895 24.4021 19.2208 24.3668L21.7513 23.9805Z"
        fill="#42BDA0" />
    <path fill-rule="evenodd" clip-rule="evenodd"
        d="M23.9154 10.6149C23.7774 10.8541 23.8593 11.1599 24.0984 11.298L27.5626 13.298C27.8017 13.436 28.1075 13.3541 28.2456 13.1149L29.2456 11.3829C29.3836 11.1437 29.3017 10.838 29.0626 10.6999L25.5984 8.69988C25.3593 8.56181 25.0535 8.64375 24.9154 8.8829L23.9154 10.6149Z"
        fill="#42BDA0" />
    <defs>
        <linearGradient id="paint0_linear_9944_674" x1="0" y1="0" x2="40" y2="40"
            gradientUnits="userSpaceOnUse">
            <stop stop-color="#0AFFE2" stop-opacity="0.16" />
            <stop offset="1" stop-color="#76FF0A" stop-opacity="0.04" />
        </linearGradient>
    </defs>
</svg>
