<svg width="17" height="17" viewBox="0 0 17 17" fill="none" xmlns="http://www.w3.org/2000/svg">
    <path
        d="M5.4401 10.8333C5.4401 10.6492 5.58934 10.4999 5.77344 10.4999H9.10677C9.29087 10.4999 9.4401 10.6492 9.4401 10.8333V11.4999C9.4401 11.684 9.29087 11.8333 9.10677 11.8333H5.77344C5.58934 11.8333 5.4401 11.684 5.4401 11.4999V10.8333Z"
        fill="#FFBB00" />
    <path fill-rule="evenodd" clip-rule="evenodd"
        d="M5.77344 8.49992C5.58934 8.49992 5.4401 8.35068 5.4401 8.16659V4.83325C5.4401 4.64916 5.58934 4.49992 5.77344 4.49992H11.7734C11.9575 4.49992 12.1068 4.64916 12.1068 4.83325V8.16659C12.1068 8.35068 11.9575 8.49992 11.7734 8.49992H5.77344ZM6.77344 5.83325H10.7734V7.16659H6.77344V5.83325Z"
        fill="#FFBB00" />
    <path fill-rule="evenodd" clip-rule="evenodd"
        d="M2.77344 2.49992C2.77344 2.13173 3.07191 1.83325 3.4401 1.83325H14.1068C14.475 1.83325 14.7734 2.13173 14.7734 2.49992V14.4999C14.7734 14.8681 14.475 15.1666 14.1068 15.1666H3.4401C3.07191 15.1666 2.77344 14.8681 2.77344 14.4999V2.49992ZM4.10677 3.16659V13.8333H13.4401V3.16659H4.10677Z"
        fill="#FFBB00" />
</svg>
